<?xml version="1.0" encoding="UTF-8" standalone="no"?>
<!DOCTYPE svg PUBLIC "-//W3C//DTD SVG 1.1//EN" "http://www.w3.org/Graphics/SVG/1.1/DTD/svg11.dtd">
<svg width="48" height="48" viewBox="0 0 44 44" version="1.1" xmlns="http://www.w3.org/2000/svg" xmlns:xlink="http://www.w3.org/1999/xlink" xml:space="preserve" xmlns:serif="http://www.serif.com/" style="fill-rule:evenodd;clip-rule:evenodd;stroke-linecap:round;stroke-linejoin:round;stroke-miterlimit:1.5;">
    <g>
        <g transform="matrix(0.856213,0,0,0.856213,0.762359,0.818606)">
            <circle cx="24.804" cy="24.738" r="16.097" style="fill:none;stroke:white;stroke-width:4.62px;"/>
        </g>
        <path d="M4.354,21.989L8.217,21.989" style="fill:none;stroke:white;stroke-width:3.96px;"/>
        <g transform="matrix(6.12323e-17,-1,1,6.12323e-17,0.0107599,12.4784)">
            <path d="M4.354,21.989L8.217,21.989" style="fill:none;stroke:white;stroke-width:3.96px;"/>
        </g>
        <g transform="matrix(6.12323e-17,-1,1,6.12323e-17,0.0107599,44.1953)">
            <path d="M4.354,21.989L8.217,21.989" style="fill:none;stroke:white;stroke-width:3.96px;"/>
        </g>
        <g transform="matrix(1,0,0,1,31.5873,0.0107599)">
            <path d="M4.354,21.989L8.217,21.989" style="fill:none;stroke:white;stroke-width:3.96px;"/>
        </g>
    </g>
    <g>
        <g transform="matrix(0.856213,0,0,0.856213,0.762359,0.818606)">
            <circle cx="24.804" cy="24.738" r="16.097" style="fill:none;stroke:black;stroke-width:2.19px;"/>
        </g>
        <path d="M4.354,21.989L8.217,21.989" style="fill:none;stroke:black;stroke-width:1.87px;"/>
        <g transform="matrix(6.12323e-17,-1,1,6.12323e-17,0.0107599,12.4784)">
            <path d="M4.354,21.989L8.217,21.989" style="fill:none;stroke:black;stroke-width:1.87px;"/>
        </g>
        <g transform="matrix(6.12323e-17,-1,1,6.12323e-17,0.0107599,44.1953)">
            <path d="M4.354,21.989L8.217,21.989" style="fill:none;stroke:black;stroke-width:1.87px;"/>
        </g>
        <g transform="matrix(1,0,0,1,31.5873,0.0107599)">
            <path d="M4.354,21.989L8.217,21.989" style="fill:none;stroke:black;stroke-width:1.87px;"/>
        </g>
    </g>
</svg>
