<?xml version="1.0" encoding="UTF-8" standalone="no"?>
<!DOCTYPE svg PUBLIC "-//W3C//DTD SVG 1.1//EN" "http://www.w3.org/Graphics/SVG/1.1/DTD/svg11.dtd">
<svg width="36" height="36" viewBox="0 0 24 24" version="1.1" xmlns="http://www.w3.org/2000/svg" xmlns:xlink="http://www.w3.org/1999/xlink" xml:space="preserve" xmlns:serif="http://www.serif.com/" style="fill-rule:evenodd;clip-rule:evenodd;stroke-linejoin:round;stroke-miterlimit:1.41421;">
    <g transform="matrix(0.0331476,0,0,0.0331476,2.0167,1.90409)">
        <g id="Layer1">
            <path d="M587.572,186.881C555.306,111.656 500.476,56.947 424.623,24.596C386.711,8.427 347.328,0.168 305.832,0.168C264.344,0.168 224.918,8.349 187.048,24.596C111.824,56.861 56.415,111.535 24.092,186.881C7.895,224.629 0,264.176 0,305.664C0,347.16 7.895,387.035 24.092,424.791C56.415,500.137 111.823,555.139 187.048,587.412C224.918,603.659 264.343,611.832 305.832,611.832C347.328,611.832 386.711,603.573 424.623,587.412C500.477,555.06 555.307,500.009 587.572,424.791C603.819,386.914 612,347.16 612,305.664C612,264.176 603.819,224.757 587.572,186.881ZM204.109,57.054C177.675,90.512 158.273,133.007 145.888,184.539L65.917,184.539C95.362,127.318 144.889,81.475 204.109,57.054ZM37.141,305.664C37.141,276.554 41.824,248.45 50.861,221.345L138.528,221.345C134.18,249.784 132.168,277.896 132.168,305.664C132.168,333.104 134.181,360.881 138.528,389.32L50.19,389.32C41.489,362.215 37.141,334.111 37.141,305.664ZM65.917,426.126L145.889,426.126C158.274,478.657 177.677,521.823 204.11,554.953C143.882,529.854 94.356,484.012 65.917,426.126ZM287.094,571.679C265.343,565.325 244.934,549.264 226.532,523.166C208.129,497.061 194.074,464.609 184.372,426.126L287.094,426.126L287.094,571.679ZM287.094,389.32L176.005,389.32C171.651,359.538 169.309,331.762 169.309,305.664C169.309,277.56 171.65,249.449 176.676,221.345L287.093,221.345L287.093,389.32L287.094,389.32ZM287.094,184.54L184.372,184.54C194.744,146.392 208.878,114.326 227.203,88.506C245.684,62.458 265.344,46.346 287.095,40.321L287.095,184.54L287.094,184.54ZM546.084,184.54L466.111,184.54C453.733,133.007 434.324,90.512 407.89,57.055C467.118,81.475 516.638,127.318 546.084,184.54ZM324.906,40.321C346.657,46.346 366.316,62.458 384.798,88.506C403.129,114.326 417.256,146.392 427.628,184.54L324.906,184.54L324.906,40.321ZM324.906,221.345L435.323,221.345C440.348,249.449 442.69,277.56 442.69,305.664C442.69,331.763 440.348,359.538 435.994,389.32L324.906,389.32L324.906,221.345ZM324.906,571.679L324.906,426.126L427.628,426.126C417.592,464.609 403.351,496.932 385.133,523.166C366.873,549.464 346.992,565.661 324.906,571.679ZM407.891,554.953C434.325,521.823 453.734,478.657 466.112,426.126L546.085,426.126C517.645,484.012 468.117,529.854 407.891,554.953ZM561.81,389.32L473.472,389.32C477.826,360.88 479.832,333.104 479.832,305.664C479.832,277.896 477.826,249.785 473.472,221.345L561.139,221.345C570.176,248.449 574.859,276.553 574.859,305.664C574.858,334.111 570.512,362.215 561.81,389.32Z" style="fill-rule:nonzero;stroke:black;stroke-width:0.91px;"/>
        </g>
    </g>
</svg>
